<mxfile host="app.diagrams.net" agent="Mozilla/5.0 (Windows NT 10.0; Win64; x64) AppleWebKit/537.36 (KHTML, like Gecko) Chrome/133.0.0.0 Safari/537.36" version="26.0.16">
  <diagram name="Page-1" id="AUb4v4xcH3yFFQrUBJuu">
    <mxGraphModel dx="1050" dy="603" grid="1" gridSize="10" guides="1" tooltips="1" connect="1" arrows="1" fold="1" page="1" pageScale="1" pageWidth="850" pageHeight="1100" math="0" shadow="0">
      <root>
        <mxCell id="0" />
        <mxCell id="1" parent="0" />
        <mxCell id="O5xYmADlfvDkKL6N0j5H-1" value=":FE" style="shape=umlLifeline;perimeter=lifelinePerimeter;whiteSpace=wrap;html=1;container=1;dropTarget=0;collapsible=0;recursiveResize=0;outlineConnect=0;portConstraint=eastwest;newEdgeStyle={&quot;curved&quot;:0,&quot;rounded&quot;:0};" vertex="1" parent="1">
          <mxGeometry x="160" y="40" width="100" height="540" as="geometry" />
        </mxCell>
        <mxCell id="O5xYmADlfvDkKL6N0j5H-3" value="" style="html=1;points=[[0,0,0,0,5],[0,1,0,0,-5],[1,0,0,0,5],[1,1,0,0,-5]];perimeter=orthogonalPerimeter;outlineConnect=0;targetShapes=umlLifeline;portConstraint=eastwest;newEdgeStyle={&quot;curved&quot;:0,&quot;rounded&quot;:0};" vertex="1" parent="O5xYmADlfvDkKL6N0j5H-1">
          <mxGeometry x="45" y="80" width="10" height="440" as="geometry" />
        </mxCell>
        <mxCell id="O5xYmADlfvDkKL6N0j5H-4" value="logged-in user&lt;div&gt;setup 2FA&lt;/div&gt;" style="html=1;verticalAlign=bottom;startArrow=oval;endArrow=block;startSize=8;curved=0;rounded=0;entryX=0;entryY=0;entryDx=0;entryDy=5;" edge="1" target="O5xYmADlfvDkKL6N0j5H-3" parent="O5xYmADlfvDkKL6N0j5H-1">
          <mxGeometry relative="1" as="geometry">
            <mxPoint x="-40" y="85" as="sourcePoint" />
          </mxGeometry>
        </mxCell>
        <mxCell id="O5xYmADlfvDkKL6N0j5H-8" value="" style="html=1;points=[[0,0,0,0,5],[0,1,0,0,-5],[1,0,0,0,5],[1,1,0,0,-5]];perimeter=orthogonalPerimeter;outlineConnect=0;targetShapes=umlLifeline;portConstraint=eastwest;newEdgeStyle={&quot;curved&quot;:0,&quot;rounded&quot;:0};" vertex="1" parent="O5xYmADlfvDkKL6N0j5H-1">
          <mxGeometry x="50" y="190" width="10" height="30" as="geometry" />
        </mxCell>
        <mxCell id="O5xYmADlfvDkKL6N0j5H-9" value="2. Generate QR code&lt;div&gt;from OTP url&lt;/div&gt;" style="html=1;align=left;spacingLeft=2;endArrow=block;rounded=0;edgeStyle=orthogonalEdgeStyle;curved=0;rounded=0;" edge="1" target="O5xYmADlfvDkKL6N0j5H-8" parent="O5xYmADlfvDkKL6N0j5H-1" source="O5xYmADlfvDkKL6N0j5H-3">
          <mxGeometry relative="1" as="geometry">
            <mxPoint x="55" y="160" as="sourcePoint" />
            <Array as="points">
              <mxPoint x="85" y="170" />
              <mxPoint x="85" y="200" />
            </Array>
          </mxGeometry>
        </mxCell>
        <mxCell id="O5xYmADlfvDkKL6N0j5H-2" value=":BE" style="shape=umlLifeline;perimeter=lifelinePerimeter;whiteSpace=wrap;html=1;container=1;dropTarget=0;collapsible=0;recursiveResize=0;outlineConnect=0;portConstraint=eastwest;newEdgeStyle={&quot;curved&quot;:0,&quot;rounded&quot;:0};" vertex="1" parent="1">
          <mxGeometry x="400" y="40" width="100" height="540" as="geometry" />
        </mxCell>
        <mxCell id="O5xYmADlfvDkKL6N0j5H-5" value="" style="html=1;points=[[0,0,0,0,5],[0,1,0,0,-5],[1,0,0,0,5],[1,1,0,0,-5]];perimeter=orthogonalPerimeter;outlineConnect=0;targetShapes=umlLifeline;portConstraint=eastwest;newEdgeStyle={&quot;curved&quot;:0,&quot;rounded&quot;:0};" vertex="1" parent="O5xYmADlfvDkKL6N0j5H-2">
          <mxGeometry x="45" y="90" width="10" height="60" as="geometry" />
        </mxCell>
        <mxCell id="O5xYmADlfvDkKL6N0j5H-27" value="" style="html=1;points=[[0,0,0,0,5],[0,1,0,0,-5],[1,0,0,0,5],[1,1,0,0,-5]];perimeter=orthogonalPerimeter;outlineConnect=0;targetShapes=umlLifeline;portConstraint=eastwest;newEdgeStyle={&quot;curved&quot;:0,&quot;rounded&quot;:0};" vertex="1" parent="O5xYmADlfvDkKL6N0j5H-2">
          <mxGeometry x="45" y="340" width="10" height="170" as="geometry" />
        </mxCell>
        <mxCell id="O5xYmADlfvDkKL6N0j5H-30" value="" style="html=1;points=[[0,0,0,0,5],[0,1,0,0,-5],[1,0,0,0,5],[1,1,0,0,-5]];perimeter=orthogonalPerimeter;outlineConnect=0;targetShapes=umlLifeline;portConstraint=eastwest;newEdgeStyle={&quot;curved&quot;:0,&quot;rounded&quot;:0};" vertex="1" parent="O5xYmADlfvDkKL6N0j5H-2">
          <mxGeometry x="50" y="370" width="10" height="30" as="geometry" />
        </mxCell>
        <mxCell id="O5xYmADlfvDkKL6N0j5H-31" value="8. verify OTP&lt;div&gt;using OTP secret&lt;/div&gt;" style="html=1;align=left;spacingLeft=2;endArrow=block;rounded=0;edgeStyle=orthogonalEdgeStyle;curved=0;rounded=0;" edge="1" target="O5xYmADlfvDkKL6N0j5H-30" parent="O5xYmADlfvDkKL6N0j5H-2">
          <mxGeometry relative="1" as="geometry">
            <mxPoint x="55" y="360" as="sourcePoint" />
            <Array as="points">
              <mxPoint x="85" y="360" />
              <mxPoint x="85" y="380" />
            </Array>
          </mxGeometry>
        </mxCell>
        <mxCell id="O5xYmADlfvDkKL6N0j5H-32" value="" style="html=1;points=[[0,0,0,0,5],[0,1,0,0,-5],[1,0,0,0,5],[1,1,0,0,-5]];perimeter=orthogonalPerimeter;outlineConnect=0;targetShapes=umlLifeline;portConstraint=eastwest;newEdgeStyle={&quot;curved&quot;:0,&quot;rounded&quot;:0};" vertex="1" parent="O5xYmADlfvDkKL6N0j5H-2">
          <mxGeometry x="50" y="110" width="10" height="30" as="geometry" />
        </mxCell>
        <mxCell id="O5xYmADlfvDkKL6N0j5H-33" value="generate&lt;div&gt;OTP secret&lt;/div&gt;" style="html=1;align=left;spacingLeft=2;endArrow=block;rounded=0;edgeStyle=orthogonalEdgeStyle;curved=0;rounded=0;" edge="1" target="O5xYmADlfvDkKL6N0j5H-32" parent="O5xYmADlfvDkKL6N0j5H-2">
          <mxGeometry relative="1" as="geometry">
            <mxPoint x="55" y="100" as="sourcePoint" />
            <Array as="points">
              <mxPoint x="85" y="100" />
              <mxPoint x="85" y="120" />
            </Array>
          </mxGeometry>
        </mxCell>
        <mxCell id="O5xYmADlfvDkKL6N0j5H-34" value="" style="html=1;points=[[0,0,0,0,5],[0,1,0,0,-5],[1,0,0,0,5],[1,1,0,0,-5]];perimeter=orthogonalPerimeter;outlineConnect=0;targetShapes=umlLifeline;portConstraint=eastwest;newEdgeStyle={&quot;curved&quot;:0,&quot;rounded&quot;:0};" vertex="1" parent="O5xYmADlfvDkKL6N0j5H-2">
          <mxGeometry x="50" y="450" width="10" height="40" as="geometry" />
        </mxCell>
        <mxCell id="O5xYmADlfvDkKL6N0j5H-35" value="9. enable&lt;div&gt;2FA for the user&lt;/div&gt;" style="html=1;align=left;spacingLeft=2;endArrow=block;rounded=0;edgeStyle=orthogonalEdgeStyle;curved=0;rounded=0;" edge="1" target="O5xYmADlfvDkKL6N0j5H-34" parent="O5xYmADlfvDkKL6N0j5H-2">
          <mxGeometry relative="1" as="geometry">
            <mxPoint x="55" y="440" as="sourcePoint" />
            <Array as="points">
              <mxPoint x="85" y="440" />
              <mxPoint x="85" y="460" />
            </Array>
          </mxGeometry>
        </mxCell>
        <mxCell id="O5xYmADlfvDkKL6N0j5H-6" value="1.&amp;nbsp;/otp/setup" style="html=1;verticalAlign=bottom;endArrow=block;curved=0;rounded=0;entryX=0;entryY=0;entryDx=0;entryDy=5;" edge="1" target="O5xYmADlfvDkKL6N0j5H-5" parent="1" source="O5xYmADlfvDkKL6N0j5H-3">
          <mxGeometry relative="1" as="geometry">
            <mxPoint x="375" y="145" as="sourcePoint" />
          </mxGeometry>
        </mxCell>
        <mxCell id="O5xYmADlfvDkKL6N0j5H-7" value="return OTP url" style="html=1;verticalAlign=bottom;endArrow=open;dashed=1;endSize=8;curved=0;rounded=0;exitX=0;exitY=1;exitDx=0;exitDy=-5;" edge="1" source="O5xYmADlfvDkKL6N0j5H-5" parent="1" target="O5xYmADlfvDkKL6N0j5H-3">
          <mxGeometry relative="1" as="geometry">
            <mxPoint x="375" y="215" as="targetPoint" />
          </mxGeometry>
        </mxCell>
        <mxCell id="O5xYmADlfvDkKL6N0j5H-11" value="" style="shape=umlLifeline;perimeter=lifelinePerimeter;whiteSpace=wrap;html=1;container=1;dropTarget=0;collapsible=0;recursiveResize=0;outlineConnect=0;portConstraint=eastwest;newEdgeStyle={&quot;curved&quot;:0,&quot;rounded&quot;:0};participant=umlActor;" vertex="1" parent="1">
          <mxGeometry x="590" y="40" width="20" height="330" as="geometry" />
        </mxCell>
        <mxCell id="O5xYmADlfvDkKL6N0j5H-15" value="" style="html=1;points=[[0,0,0,0,5],[0,1,0,0,-5],[1,0,0,0,5],[1,1,0,0,-5]];perimeter=orthogonalPerimeter;outlineConnect=0;targetShapes=umlLifeline;portConstraint=eastwest;newEdgeStyle={&quot;curved&quot;:0,&quot;rounded&quot;:0};" vertex="1" parent="O5xYmADlfvDkKL6N0j5H-11">
          <mxGeometry x="5" y="230" width="10" height="70" as="geometry" />
        </mxCell>
        <mxCell id="O5xYmADlfvDkKL6N0j5H-16" value="3. display QR code" style="html=1;verticalAlign=bottom;endArrow=open;curved=0;rounded=0;entryX=0;entryY=0;entryDx=0;entryDy=5;endFill=0;" edge="1" target="O5xYmADlfvDkKL6N0j5H-15" parent="1" source="O5xYmADlfvDkKL6N0j5H-3">
          <mxGeometry relative="1" as="geometry">
            <mxPoint x="525" y="285" as="sourcePoint" />
          </mxGeometry>
        </mxCell>
        <mxCell id="O5xYmADlfvDkKL6N0j5H-18" value=":Google&lt;div&gt;Authenticator app&lt;/div&gt;" style="shape=umlLifeline;perimeter=lifelinePerimeter;whiteSpace=wrap;html=1;container=1;dropTarget=0;collapsible=0;recursiveResize=0;outlineConnect=0;portConstraint=eastwest;newEdgeStyle={&quot;curved&quot;:0,&quot;rounded&quot;:0};" vertex="1" parent="1">
          <mxGeometry x="700" y="40" width="100" height="330" as="geometry" />
        </mxCell>
        <mxCell id="O5xYmADlfvDkKL6N0j5H-23" value="" style="html=1;points=[[0,0,0,0,5],[0,1,0,0,-5],[1,0,0,0,5],[1,1,0,0,-5]];perimeter=orthogonalPerimeter;outlineConnect=0;targetShapes=umlLifeline;portConstraint=eastwest;newEdgeStyle={&quot;curved&quot;:0,&quot;rounded&quot;:0};" vertex="1" parent="O5xYmADlfvDkKL6N0j5H-18">
          <mxGeometry x="45" y="250" width="10" height="40" as="geometry" />
        </mxCell>
        <mxCell id="O5xYmADlfvDkKL6N0j5H-24" value="4. use app&lt;div&gt;to scan the QR code&lt;/div&gt;" style="html=1;verticalAlign=bottom;endArrow=block;curved=0;rounded=0;entryX=0;entryY=0;entryDx=0;entryDy=5;" edge="1" target="O5xYmADlfvDkKL6N0j5H-23" parent="1" source="O5xYmADlfvDkKL6N0j5H-15">
          <mxGeometry relative="1" as="geometry">
            <mxPoint x="675" y="295" as="sourcePoint" />
          </mxGeometry>
        </mxCell>
        <mxCell id="O5xYmADlfvDkKL6N0j5H-25" value="5. get OTP from app" style="html=1;verticalAlign=bottom;endArrow=open;dashed=1;endSize=8;curved=0;rounded=0;exitX=0;exitY=1;exitDx=0;exitDy=-5;" edge="1" source="O5xYmADlfvDkKL6N0j5H-23" parent="1" target="O5xYmADlfvDkKL6N0j5H-15">
          <mxGeometry x="-0.0714" y="25" relative="1" as="geometry">
            <mxPoint x="675" y="365" as="targetPoint" />
            <mxPoint as="offset" />
          </mxGeometry>
        </mxCell>
        <mxCell id="O5xYmADlfvDkKL6N0j5H-26" value="6. input OTP to FE" style="html=1;verticalAlign=bottom;endArrow=open;dashed=1;endSize=8;curved=0;rounded=0;exitX=0;exitY=1;exitDx=0;exitDy=-5;exitPerimeter=0;" edge="1" parent="1" source="O5xYmADlfvDkKL6N0j5H-15" target="O5xYmADlfvDkKL6N0j5H-3">
          <mxGeometry x="-0.0789" y="25" relative="1" as="geometry">
            <mxPoint x="615" y="335" as="targetPoint" />
            <mxPoint x="755" y="335" as="sourcePoint" />
            <mxPoint as="offset" />
          </mxGeometry>
        </mxCell>
        <mxCell id="O5xYmADlfvDkKL6N0j5H-28" value="7. confirm OTP using /otp/verify" style="html=1;verticalAlign=bottom;endArrow=block;curved=0;rounded=0;entryX=0;entryY=0;entryDx=0;entryDy=5;" edge="1" target="O5xYmADlfvDkKL6N0j5H-27" parent="1" source="O5xYmADlfvDkKL6N0j5H-3">
          <mxGeometry relative="1" as="geometry">
            <mxPoint x="375" y="375" as="sourcePoint" />
          </mxGeometry>
        </mxCell>
        <mxCell id="O5xYmADlfvDkKL6N0j5H-29" value="return" style="html=1;verticalAlign=bottom;endArrow=open;dashed=1;endSize=8;curved=0;rounded=0;exitX=0;exitY=1;exitDx=0;exitDy=-5;" edge="1" source="O5xYmADlfvDkKL6N0j5H-27" parent="1" target="O5xYmADlfvDkKL6N0j5H-3">
          <mxGeometry relative="1" as="geometry">
            <mxPoint x="375" y="445" as="targetPoint" />
          </mxGeometry>
        </mxCell>
        <mxCell id="O5xYmADlfvDkKL6N0j5H-36" value="opt" style="shape=umlFrame;whiteSpace=wrap;html=1;pointerEvents=0;width=40;height=20;" vertex="1" parent="1">
          <mxGeometry x="360" y="450" width="220" height="90" as="geometry" />
        </mxCell>
        <mxCell id="O5xYmADlfvDkKL6N0j5H-37" value="[OTP valid]" style="text;html=1;align=center;verticalAlign=middle;resizable=0;points=[];autosize=1;strokeColor=none;fillColor=none;" vertex="1" parent="1">
          <mxGeometry x="360" y="470" width="80" height="30" as="geometry" />
        </mxCell>
      </root>
    </mxGraphModel>
  </diagram>
</mxfile>
